<svg id="login-logo" xmlns="http://www.w3.org/2000/svg" viewBox="0 0 783.12 379.92"><g data-name="Layer 2"><g data-name="FINAL?"><path d="M194.89 169.83q-16.29 16.74-16.29 39.28t16.63 38.5q16.62 15.94 38.5 15.95T271 251.29a12 12 0 019.15-2.23 13 13 0 018.7 4.68 12.78 12.78 0 012.46 9.49 12.12 12.12 0 01-4.69 8.37Q264.3 289 235.06 289q-33.47 0-57.58-23.55t-24.32-56.8q.21-33 24.32-56.58t57.58-23.77q29.24 0 51.56 17.41a12.86 12.86 0 014.69 8.48 12.84 12.84 0 01-11.16 14.29A11.53 11.53 0 01271 166q-15-12.27-36.94-12.27t-39.17 16.1zm228.76 71.64q0-17-39.28-24.33h-.44a126.29 126.29 0 01-30.13-9.37q-12.72-6-18.64-15.51a36.51 36.51 0 01-5.91-19.53q0-19.42 17.07-31.92t39.39-12.5a64.67 64.67 0 0120.09 3.35 85.41 85.41 0 0115.29 6.25q5 2.91 13.28 8.26a11.67 11.67 0 014.8 7.36 11 11 0 01-1.57 8.6 11.15 11.15 0 01-7.25 4.91 10.93 10.93 0 01-8.7-1.68A119.51 119.51 0 00403 154.65a42.63 42.63 0 00-17.3-3.57q-14.73 0-24.1 6.92t-9.38 14.73a11.41 11.41 0 001.78 6.47q6.24 10.28 33.7 15.4h.45q18.77 3.8 30.85 9.4 27.66 13.62 27.67 37.5 0 20.76-18.3 34t-42.18 13.28q-29.24-.21-57.14-22.32a11.2 11.2 0 01-4.12-7.81 10.89 10.89 0 012.34-8.48 11.31 11.31 0 017.81-4.13 10.54 10.54 0 018.48 2.57Q365 266 386.16 265.8q16.74 0 27.12-7.7t10.37-16.63zM554 232.54h-.48a13 13 0 01-10.83-5.13L509 182.77v94a11.38 11.38 0 01-3.89 8.71 13.27 13.27 0 01-9.3 3.57 12.85 12.85 0 01-9.19-3.57 11.55 11.55 0 01-3.77-8.71V145.05a11.54 11.54 0 013.77-8.7 12.85 12.85 0 019.19-3.57h.7q6.83 0 10.37 5.13l46.87 61.6 46.87-61.6a12.78 12.78 0 0110.6-5.13h.24a14.18 14.18 0 019.3 3.79 11.15 11.15 0 013.89 8.48v131.68a11.47 11.47 0 01-3.89 8.59 13 13 0 01-9.3 3.69 12.85 12.85 0 01-9.19-3.57 11.55 11.55 0 01-3.77-8.71v-94l-33.91 44.64a12.81 12.81 0 01-10.59 5.17zM123.29 347.85c1.55.79 2.32 1.84 2.32 3.14a2.67 2.67 0 01-.58 1.72 1.85 1.85 0 01-1.52.74 3 3 0 01-1.16-.2 4.12 4.12 0 01-.87-.54 5.87 5.87 0 00-.82-.55 5.61 5.61 0 00-1.32-.41 8 8 0 00-1.41-.17 6.74 6.74 0 00-5.24 2.07 8.53 8.53 0 000 10.76 6.34 6.34 0 004.91 2.12 7.53 7.53 0 003.26-.54 5.79 5.79 0 00.74-.47 5.13 5.13 0 01.87-.51 2.38 2.38 0 011-.18 2.25 2.25 0 011.76.72 2.49 2.49 0 01-.6 3.84 9.82 9.82 0 01-3.3 1.49 16.74 16.74 0 01-4.38.56 11.33 11.33 0 01-6-1.61 10.85 10.85 0 01-4-4.44 13.85 13.85 0 01-1.42-6.32 13.4 13.4 0 011.49-6.42 11 11 0 014.17-4.4 11.69 11.69 0 016.08-1.59 13.5 13.5 0 016.02 1.19zm27.81 17.63a11.41 11.41 0 01-4.4 4.4 12.9 12.9 0 01-12.3 0 11.47 11.47 0 01-4.37-4.4 13.55 13.55 0 010-12.81 11.6 11.6 0 014.37-4.42 12.69 12.69 0 0112.3 0 11.53 11.53 0 014.4 4.42 13.55 13.55 0 010 12.81zm-4.67-10.31a6.71 6.71 0 00-2.45-2.66 6.74 6.74 0 00-6.83 0 6.64 6.64 0 00-2.45 2.66 8.17 8.17 0 00-.92 3.9 8.07 8.07 0 00.92 3.89 6.63 6.63 0 002.45 2.63 6.67 6.67 0 006.83 0 6.7 6.7 0 002.45-2.63 8.07 8.07 0 00.92-3.89 8.17 8.17 0 00-.92-3.9zm44.4-5.8a14 14 0 011.69 7.47v11.43a2.66 2.66 0 01-.76 1.94 2.55 2.55 0 01-1.92.78 2.58 2.58 0 01-1.92-.78 2.69 2.69 0 01-.75-1.94v-11.43a6.78 6.78 0 00-1-3.86 3.79 3.79 0 00-3.37-1.4 5.09 5.09 0 00-3.91 1.49 5.29 5.29 0 00-1.41 3.77v11.43a2.69 2.69 0 01-.75 1.94 2.58 2.58 0 01-1.92.78 2.55 2.55 0 01-1.92-.78 2.66 2.66 0 01-.76-1.94v-11.43a6.78 6.78 0 00-1-3.86 3.79 3.79 0 00-3.37-1.4 5.09 5.09 0 00-3.91 1.49 5.29 5.29 0 00-1.4 3.77v11.43a2.7 2.7 0 01-.76 1.94 2.58 2.58 0 01-1.92.78 2.55 2.55 0 01-1.92-.78 2.66 2.66 0 01-.76-1.94v-18.44a2.66 2.66 0 01.76-1.94 2.55 2.55 0 011.92-.78 2.58 2.58 0 011.92.78 2.7 2.7 0 01.76 1.94v.72a10.94 10.94 0 013.05-2.75 7.73 7.73 0 014.13-1.14q5.63 0 7.19 4.92a10.6 10.6 0 013.1-3.4 7.78 7.78 0 014.71-1.52c3.03 0 5.06.91 6.2 2.71zm25.44-1.12a11.18 11.18 0 013.95 4.4 13.66 13.66 0 011.45 6.38 14.09 14.09 0 01-1.43 6.41 10.89 10.89 0 01-3.9 4.41 10 10 0 01-5.47 1.59 9.56 9.56 0 01-4-.87 10.67 10.67 0 01-3.15-2.12v8.75a2.66 2.66 0 01-.76 1.94 2.55 2.55 0 01-1.92.78 2.6 2.6 0 01-1.92-.76 2.68 2.68 0 01-.76-2v-27.33a2.7 2.7 0 01.76-1.94 2.58 2.58 0 011.92-.78 2.55 2.55 0 011.92.78 2.66 2.66 0 01.76 1.94v.17a9.33 9.33 0 013-2.34 8.56 8.56 0 014-1 10.2 10.2 0 015.55 1.59zm-1.56 16.14a8.76 8.76 0 000-10.69 6.31 6.31 0 00-9.44 0 7.86 7.86 0 00-1.83 5.33 8 8 0 001.83 5.36 6.25 6.25 0 009.42 0zm31.06-16.5a2.66 2.66 0 01.76 1.94v11.34a10.36 10.36 0 01-2.65 7.55q-2.67 2.71-7.57 2.72c-3.27 0-5.79-.91-7.54-2.72a10.4 10.4 0 01-2.64-7.55v-11.34a2.66 2.66 0 01.76-1.94 2.75 2.75 0 013.84 0 2.66 2.66 0 01.76 1.94v11.34a5.84 5.84 0 001.2 4 5.68 5.68 0 007.28 0 5.84 5.84 0 001.2-4v-11.34a2.7 2.7 0 01.76-1.94 2.58 2.58 0 011.92-.78 2.55 2.55 0 011.92.78zM265 366.55a2.39 2.39 0 01-.81 3.62 5.43 5.43 0 01-3 .82 8.66 8.66 0 01-4.67-1.18c-1.26-.79-1.9-2.46-1.9-5v-12.34h-2.02a2.46 2.46 0 01-2.5-2.5 2.28 2.28 0 01.72-1.72 2.45 2.45 0 011.78-.69h2.05v-2.86a2.68 2.68 0 012.73-2.72 2.5 2.5 0 011.87.78 2.66 2.66 0 01.76 1.94v2.86h3.17a2.43 2.43 0 012.5 2.5 2.32 2.32 0 01-.71 1.72 2.49 2.49 0 01-1.79.69H260v12.09a1.72 1.72 0 00.49 1.37 2 2 0 001.34.42 3.73 3.73 0 001-.18 2.65 2.65 0 011-.22 1.48 1.48 0 011.17.6zm25.94-6.31a2.85 2.85 0 01-1.87.66h-14.73a6.72 6.72 0 002.46 4.1 6.82 6.82 0 004.32 1.5 9.36 9.36 0 002.86-.34 7.3 7.3 0 001.63-.71l.83-.51a3.37 3.37 0 011.51-.41 2.22 2.22 0 011.61.67 2.14 2.14 0 01.67 1.57A2.78 2.78 0 01289 369a10.39 10.39 0 01-3.35 1.74 13 13 0 01-4.24.72 13.18 13.18 0 01-6.54-1.56 10.93 10.93 0 01-4.3-4.31 12.47 12.47 0 01-1.52-6.18 13.58 13.58 0 011.61-6.74 11.38 11.38 0 014.24-4.45 11 11 0 015.62-1.54 10.46 10.46 0 015.56 1.61 12 12 0 014.17 4.33 11.67 11.67 0 011.56 5.89 2.3 2.3 0 01-.87 1.73zm-16.56-3.8h11.7v-.31a4.65 4.65 0 00-1.83-3.22 5.8 5.8 0 00-3.75-1.33q-5.17 0-6.12 4.86zm36.54-9.02a2.28 2.28 0 01.91 1.79 2.78 2.78 0 01-.71 2.08 2.36 2.36 0 01-1.7.69 4.41 4.41 0 01-1.51-.32l-.61-.17a3.55 3.55 0 00-1-.14 3.94 3.94 0 00-2.23.72 5.17 5.17 0 00-1.77 2.16 8 8 0 00-.69 3.46v10.58a2.66 2.66 0 01-.76 1.94 2.55 2.55 0 01-1.92.78 2.58 2.58 0 01-1.92-.78 2.69 2.69 0 01-.75-1.94v-18.44a2.69 2.69 0 01.75-1.94 2.58 2.58 0 011.92-.78 2.55 2.55 0 011.92.78 2.66 2.66 0 01.76 1.94v.58a6.92 6.92 0 012.95-2.79 9.2 9.2 0 014.11-1 3.44 3.44 0 012.25.8zM326.34 366a2.36 2.36 0 011.16-2 2.44 2.44 0 011.3-.4 2.53 2.53 0 011.78.85 9.26 9.26 0 002.79 2.05 8.3 8.3 0 003.51.67c2.32-.09 3.48-1 3.48-2.63a2.13 2.13 0 00-1.19-2 16.12 16.12 0 00-3.68-1.34 33.46 33.46 0 01-4.22-1.43 7.54 7.54 0 01-2.81-2.17 6.64 6.64 0 01.05-7.63 8 8 0 013.21-2.45 10.23 10.23 0 014.22-.88 13.07 13.07 0 014.55.85 7.93 7.93 0 013.57 2.5 2.49 2.49 0 01.58 1.61 2.08 2.08 0 01-.85 1.7 2.27 2.27 0 01-1.42.49 2.15 2.15 0 01-1.61-.63 5.79 5.79 0 00-2.08-1.56 6.8 6.8 0 00-2.88-.58c-2.26 0-3.39.82-3.39 2.45a2.09 2.09 0 00.63 1.59 4.31 4.31 0 001.58.94c.64.22 1.54.5 2.7.82a29.25 29.25 0 014 1.39 6.81 6.81 0 012.72 2.18 6.32 6.32 0 011.12 3.89 5.91 5.91 0 01-1.3 3.81 8.11 8.11 0 01-3.32 2.48 10.7 10.7 0 01-4.18.85 15.24 15.24 0 01-5.49-1 9.17 9.17 0 01-4.15-3.17 2.17 2.17 0 01-.38-1.25zm39.82-18.15c1.54.79 2.32 1.84 2.32 3.14a2.73 2.73 0 01-.58 1.72 1.86 1.86 0 01-1.52.74 2.91 2.91 0 01-1.16-.2 3.67 3.67 0 01-.87-.54 4.22 4.22 0 00-2.14-1 8 8 0 00-1.41-.17 6.74 6.74 0 00-5.24 2.07 8.53 8.53 0 000 10.76 6.33 6.33 0 004.91 2.12 7.59 7.59 0 003.26-.54 5.83 5.83 0 00.73-.47 6 6 0 01.87-.51 2.43 2.43 0 011-.18 2.25 2.25 0 011.76.72 2.49 2.49 0 01-.6 3.84 9.88 9.88 0 01-3.31 1.49 16.72 16.72 0 01-4.37.56 11.33 11.33 0 01-6.05-1.61 10.78 10.78 0 01-4-4.44 13.86 13.86 0 01-1.43-6.32 13.4 13.4 0 011.5-6.42 11 11 0 014.17-4.4 11.68 11.68 0 016.07-1.59 13.52 13.52 0 016.09 1.23zm6.65-4.13a2.09 2.09 0 01-.63-1.74v-.85a2 2 0 01.67-1.74 5 5 0 014.33 0 2.09 2.09 0 01.63 1.74v.87a2 2 0 01-.65 1.76 3.92 3.92 0 01-2.21.47 3.51 3.51 0 01-2.14-.51zm4.1 26.49a2.55 2.55 0 01-1.91.79 2.58 2.58 0 01-1.92-.78 2.69 2.69 0 01-.75-1.94v-18.45a2.69 2.69 0 01.75-1.94 2.58 2.58 0 011.92-.78 2.55 2.55 0 011.92.78 2.66 2.66 0 01.76 1.94v18.44a2.66 2.66 0 01-.77 1.94zm26.83-9.97a2.87 2.87 0 01-1.87.66h-14.73a6.66 6.66 0 002.45 4.13 6.85 6.85 0 004.33 1.5 9.4 9.4 0 002.86-.34 7.74 7.74 0 001.63-.71l.82-.51a3.41 3.41 0 011.52-.41 2.24 2.24 0 011.61.67 2.18 2.18 0 01.67 1.57 2.78 2.78 0 01-1.25 2.18 10.5 10.5 0 01-3.35 1.74 13 13 0 01-4.24.72 13.18 13.18 0 01-6.54-1.56 11 11 0 01-4.31-4.31 12.58 12.58 0 01-1.52-6.18 13.69 13.69 0 011.61-6.74 11.38 11.38 0 014.24-4.45 11 11 0 015.63-1.54 10.43 10.43 0 015.55 1.61 12.14 12.14 0 014.15 4.33 11.67 11.67 0 011.56 5.89 2.3 2.3 0 01-.82 1.75zm-16.56-3.8h11.69v-.31a4.58 4.58 0 00-1.83-3.22 5.79 5.79 0 00-3.74-1.33q-5.19 0-6.12 4.86zm40.93-7.07a13.72 13.72 0 011.74 7.47v11.43a2.66 2.66 0 01-.76 1.94 2.55 2.55 0 01-1.92.78 2.58 2.58 0 01-1.92-.78 2.69 2.69 0 01-.75-1.94v-11.43a6.48 6.48 0 00-1-3.86 4.08 4.08 0 00-3.53-1.4 5.43 5.43 0 00-4.06 1.49 5.17 5.17 0 00-1.47 3.77v11.43a2.7 2.7 0 01-.76 1.94 2.75 2.75 0 01-3.84 0 2.66 2.66 0 01-.76-1.94v-18.44a2.66 2.66 0 01.76-1.94 2.75 2.75 0 013.84 0 2.7 2.7 0 01.76 1.94v.76a10.71 10.71 0 013.14-2.76 8.14 8.14 0 014.27-1.17c3 0 5.15.91 6.26 2.71zm24.06-1.52c1.55.79 2.32 1.84 2.32 3.14a2.67 2.67 0 01-.58 1.72 1.85 1.85 0 01-1.52.74 3 3 0 01-1.16-.2 4.12 4.12 0 01-.87-.54 5.87 5.87 0 00-.82-.55 5.61 5.61 0 00-1.32-.41 8 8 0 00-1.41-.17 6.74 6.74 0 00-5.24 2.07 8.53 8.53 0 000 10.76 6.34 6.34 0 004.91 2.12 7.53 7.53 0 003.26-.54 5.79 5.79 0 00.74-.47 5.13 5.13 0 01.87-.51 2.38 2.38 0 011-.18 2.25 2.25 0 011.76.72 2.49 2.49 0 01-.6 3.84 9.82 9.82 0 01-3.3 1.49 16.74 16.74 0 01-4.38.56 11.35 11.35 0 01-6.05-1.61 10.85 10.85 0 01-4-4.44 13.85 13.85 0 01-1.42-6.32 13.4 13.4 0 011.49-6.42 11 11 0 014.18-4.4 11.63 11.63 0 016.07-1.59 13.5 13.5 0 016.07 1.19zm27.05 12.39a2.85 2.85 0 01-1.87.66h-14.73a6.66 6.66 0 002.45 4.13 6.85 6.85 0 004.33 1.5 9.4 9.4 0 002.86-.34 7.51 7.51 0 001.63-.71l.82-.51a3.41 3.41 0 011.52-.41 2.22 2.22 0 011.61.67 2.18 2.18 0 01.67 1.57 2.78 2.78 0 01-1.25 2.18 10.5 10.5 0 01-3.35 1.74 13 13 0 01-4.24.72 13.18 13.18 0 01-6.54-1.56 11 11 0 01-4.31-4.31 12.58 12.58 0 01-1.52-6.18 13.69 13.69 0 011.61-6.74 11.45 11.45 0 014.24-4.45 11 11 0 015.63-1.54 10.43 10.43 0 015.55 1.61 12.14 12.14 0 014.18 4.33 11.67 11.67 0 011.56 5.89 2.3 2.3 0 01-.85 1.75zm-16.56-3.8h11.7v-.31a4.65 4.65 0 00-1.83-3.22 5.83 5.83 0 00-3.75-1.33c-3.46 0-5.49 1.62-6.12 4.86zm68.03-7.07a14 14 0 011.69 7.47v11.43a2.66 2.66 0 01-.76 1.94 2.55 2.55 0 01-1.92.78 2.58 2.58 0 01-1.92-.78 2.69 2.69 0 01-.75-1.94v-11.43a6.78 6.78 0 00-1-3.86 3.79 3.79 0 00-3.37-1.4 5.09 5.09 0 00-3.91 1.49 5.29 5.29 0 00-1.41 3.77v11.43a2.69 2.69 0 01-.75 1.94 2.58 2.58 0 01-1.92.78 2.55 2.55 0 01-1.92-.78 2.66 2.66 0 01-.76-1.94v-11.43a6.78 6.78 0 00-1-3.86 3.77 3.77 0 00-3.37-1.4 5.09 5.09 0 00-3.91 1.49 5.33 5.33 0 00-1.4 3.77v11.43a2.7 2.7 0 01-.76 1.94 2.58 2.58 0 01-1.92.78 2.55 2.55 0 01-1.92-.78 2.66 2.66 0 01-.76-1.94v-18.44a2.66 2.66 0 01.76-1.94 2.55 2.55 0 011.92-.78 2.58 2.58 0 011.92.78 2.7 2.7 0 01.76 1.94v.72a10.94 10.94 0 013.05-2.75 7.76 7.76 0 014.13-1.14q5.63 0 7.19 4.92a10.6 10.6 0 013.1-3.4 7.82 7.82 0 014.71-1.52c3.03 0 5.06.91 6.2 2.71zm28.07 10.87a2.85 2.85 0 01-1.87.66h-14.73a6.71 6.71 0 002.45 4.13 6.87 6.87 0 004.33 1.5 9.4 9.4 0 002.86-.34 7.51 7.51 0 001.63-.71l.82-.51a3.44 3.44 0 011.52-.41 2.22 2.22 0 011.61.67 2.14 2.14 0 01.67 1.57 2.78 2.78 0 01-1.25 2.2 10.39 10.39 0 01-3.35 1.74 13 13 0 01-4.24.72 13.18 13.18 0 01-6.54-1.56 11 11 0 01-4.31-4.31 12.57 12.57 0 01-1.51-6.18 13.68 13.68 0 011.6-6.74 11.45 11.45 0 014.24-4.45 11 11 0 015.63-1.54 10.43 10.43 0 015.55 1.61 12 12 0 014.18 4.33 11.67 11.67 0 011.56 5.89 2.3 2.3 0 01-.85 1.73zm-16.56-3.8h11.7v-.31a4.65 4.65 0 00-1.83-3.22 5.8 5.8 0 00-3.75-1.33q-5.17 0-6.12 4.86zm40.93-7.07a13.72 13.72 0 011.74 7.47v11.43a2.69 2.69 0 01-.75 1.94 2.58 2.58 0 01-1.92.78 2.55 2.55 0 01-1.92-.78 2.66 2.66 0 01-.76-1.94v-11.43a6.41 6.41 0 00-1-3.86 4.06 4.06 0 00-3.52-1.4 5.45 5.45 0 00-4.07 1.49 5.17 5.17 0 00-1.47 3.77v11.43a2.66 2.66 0 01-.76 1.94 2.75 2.75 0 01-3.84 0 2.7 2.7 0 01-.76-1.94v-18.44a2.7 2.7 0 01.76-1.94 2.75 2.75 0 013.84 0 2.66 2.66 0 01.76 1.94v.76a10.63 10.63 0 013.15-2.76 8.08 8.08 0 014.26-1.17c3.01 0 5.13.91 6.26 2.71zm20.2 17.18a2.38 2.38 0 01-.8 3.62 5.48 5.48 0 01-3 .82 8.6 8.6 0 01-4.66-1.18q-1.9-1.19-1.9-5v-12.34h-2.06a2.44 2.44 0 01-2.49-2.5 2.27 2.27 0 01.71-1.72 2.47 2.47 0 011.78-.69H593v-2.86a2.67 2.67 0 012.72-2.72 2.54 2.54 0 011.88.78 2.7 2.7 0 01.76 1.94v2.86h3.16a2.43 2.43 0 012.5 2.5 2.32 2.32 0 01-.71 1.72 2.48 2.48 0 01-1.79.69h-3.16v12.09a1.72 1.72 0 00.49 1.37 2 2 0 001.34.42 3.87 3.87 0 001-.18 2.61 2.61 0 011-.22 1.48 1.48 0 011.14.6zm26.72-1.07a11.41 11.41 0 01-4.4 4.4 12.9 12.9 0 01-12.3 0 11.47 11.47 0 01-4.37-4.4 13.55 13.55 0 010-12.81 11.6 11.6 0 014.37-4.42 12.69 12.69 0 0112.3 0 11.53 11.53 0 014.4 4.42 13.62 13.62 0 010 12.81zm-4.67-10.31a6.79 6.79 0 00-2.45-2.66 6.74 6.74 0 00-6.83 0 6.74 6.74 0 00-2.46 2.66 8.16 8.16 0 00-.91 3.9 8.07 8.07 0 00.91 3.89 6.72 6.72 0 002.46 2.63 6.67 6.67 0 006.83 0 6.77 6.77 0 002.45-2.63 8.07 8.07 0 00.92-3.89 8.17 8.17 0 00-.92-3.9zm25.4-7.75a2.29 2.29 0 01.92 1.79 2.78 2.78 0 01-.72 2.08 2.34 2.34 0 01-1.69.69 4.41 4.41 0 01-1.52-.32l-.6-.17a3.68 3.68 0 00-1-.14 3.94 3.94 0 00-2.23.72 5.15 5.15 0 00-1.76 2.16 7.85 7.85 0 00-.7 3.46v10.58a2.69 2.69 0 01-.75 1.94 2.58 2.58 0 01-1.92.78 2.55 2.55 0 01-1.92-.78 2.66 2.66 0 01-.76-1.94v-18.44a2.66 2.66 0 01.76-1.94 2.55 2.55 0 011.92-.78 2.58 2.58 0 011.92.78 2.69 2.69 0 01.75 1.94v.58a6.92 6.92 0 012.95-2.79 9.2 9.2 0 014.11-1 3.44 3.44 0 012.24.8zM653.7 366a2.36 2.36 0 011.16-2 2.44 2.44 0 011.3-.4 2.53 2.53 0 011.78.85 9.42 9.42 0 002.8 2.05 8.22 8.22 0 003.5.67c2.32-.09 3.48-1 3.48-2.63a2.12 2.12 0 00-1.18-2 16.31 16.31 0 00-3.68-1.34 32.91 32.91 0 01-4.22-1.43 7.49 7.49 0 01-2.82-2.17 6 6 0 01-1.18-3.9 5.91 5.91 0 011.23-3.73 8.06 8.06 0 013.21-2.45 10.26 10.26 0 014.22-.88 13 13 0 014.55.85 8 8 0 013.58 2.5 2.55 2.55 0 01.58 1.61 2.11 2.11 0 01-.85 1.7 2.31 2.31 0 01-1.43.49 2.17 2.17 0 01-1.61-.63 5.75 5.75 0 00-2.07-1.56 6.83 6.83 0 00-2.88-.58c-2.26 0-3.39.82-3.39 2.45a2.09 2.09 0 00.62 1.59 4.36 4.36 0 001.6.94c.63.22 1.53.5 2.7.82a29.55 29.55 0 014 1.39 6.91 6.91 0 012.73 2.18 6.32 6.32 0 011.11 3.89 6 6 0 01-1.29 3.81 8.14 8.14 0 01-3.33 2.48 10.62 10.62 0 01-4.17.85 15.17 15.17 0 01-5.49-1 9.12 9.12 0 01-4.15-3.17 2.18 2.18 0 01-.41-1.25z" fill="#9ae0b3"/><path d="M96.11 115.64L13 198.75l81.09 81.09M687 115.64l83.12 83.11-81.09 81.09" fill="none" stroke="#9ae0b3" stroke-linecap="round" stroke-linejoin="round" stroke-width="26"/><path stroke-miterlimit="10" stroke-width="24" fill="none" stroke="#9ae0b3" stroke-linecap="round" d="M389.42 47v44"/><path d="M356.3 27a6.86 6.86 0 106.85 6.86A6.87 6.87 0 00356.3 27z" fill="#9ae0b3"/><path d="M369.74 10.32a58.28 58.28 0 00-55.8-5.74c-2.13 18.37 5.82 37.28 22.58 49a58.28 58.28 0 0055.8 5.74c2.13-18.38-5.82-37.32-22.58-49zm-13.44 35.4a11.86 11.86 0 1111.85-11.86 11.87 11.87 0 01-11.85 11.86z" fill="#9ae0b3"/><path d="M464 4.58a58.28 58.28 0 00-55.8 5.74c-16.77 11.7-24.71 30.62-22.58 49a58.28 58.28 0 0055.8-5.74c16.8-11.72 24.75-30.58 22.58-49zM425.42 44a3 3 0 01-6 0V29h-1a3 3 0 010-6h4a3 3 0 013 3z" fill="#9ae0b3"/></g></g></svg>
