<svg id="login-logo" xmlns="http://www.w3.org/2000/svg" viewBox="0 0 783.12 386.32"><defs><style>.cls-1,.cls-2{fill:#9ae0b3;}.cls-2{font-size:44.64px;font-family:Quicksand-Bold, Quicksand;font-weight:700;}.cls-3{letter-spacing:0em;}.cls-4,.cls-5{fill:none;stroke:#9ae0b3;stroke-linecap:round;}.cls-4{stroke-linejoin:round;stroke-width:26px;}.cls-5{stroke-miterlimit:10;stroke-width:24px;}</style></defs><g id="Layer_2" data-name="Layer 2"><g id="FINAL_" data-name="FINAL?"><path class="cls-1" d="M194.89,169.83q-16.29,16.74-16.29,39.28t16.63,38.5q16.62,15.94,38.5,15.95T271,251.29a12,12,0,0,1,9.15-2.23,13,13,0,0,1,8.7,4.68,12.78,12.78,0,0,1,2.46,9.49,12.12,12.12,0,0,1-4.69,8.37Q264.3,289,235.06,289q-33.47,0-57.58-23.55t-24.32-56.8q.21-33,24.32-56.58t57.58-23.77q29.24,0,51.56,17.41a12.86,12.86,0,0,1,4.69,8.48,12.84,12.84,0,0,1-11.16,14.29A11.53,11.53,0,0,1,271,166q-15-12.27-36.94-12.27T194.89,169.83Z"/><path class="cls-1" d="M423.65,241.47q0-17-39.28-24.33h-.44a126.29,126.29,0,0,1-30.13-9.37q-12.72-6-18.64-15.51a36.51,36.51,0,0,1-5.91-19.53q0-19.42,17.07-31.92t39.39-12.5a64.67,64.67,0,0,1,20.09,3.35,85.41,85.41,0,0,1,15.29,6.25q5,2.91,13.28,8.26a11.67,11.67,0,0,1,4.8,7.36,11,11,0,0,1-1.57,8.6,11.15,11.15,0,0,1-7.25,4.91,10.93,10.93,0,0,1-8.7-1.68A119.51,119.51,0,0,0,403,154.65a42.63,42.63,0,0,0-17.3-3.57q-14.73,0-24.1,6.92t-9.38,14.73A11.41,11.41,0,0,0,354,179.2q6.24,10.28,33.7,15.4h.45Q406.92,198.4,419,204q27.66,13.62,27.67,37.5,0,20.76-18.3,34t-42.18,13.28q-29.24-.21-57.14-22.32a11.2,11.2,0,0,1-4.12-7.81,10.89,10.89,0,0,1,2.34-8.48,11.31,11.31,0,0,1,7.81-4.13,10.54,10.54,0,0,1,8.48,2.57Q365,266,386.16,265.8q16.74,0,27.12-7.7T423.65,241.47Z"/><path class="cls-1" d="M554,232.54h-.48a13,13,0,0,1-10.83-5.13L509,182.77v94a11.38,11.38,0,0,1-3.89,8.71,13.27,13.27,0,0,1-9.3,3.57,12.85,12.85,0,0,1-9.19-3.57,11.55,11.55,0,0,1-3.77-8.71V145.05a11.54,11.54,0,0,1,3.77-8.7,12.85,12.85,0,0,1,9.19-3.57h.7q6.83,0,10.37,5.13l46.87,61.6,46.87-61.6a12.78,12.78,0,0,1,10.6-5.13h.24a14.18,14.18,0,0,1,9.3,3.79,11.15,11.15,0,0,1,3.89,8.48V276.73a11.47,11.47,0,0,1-3.89,8.59,13,13,0,0,1-9.3,3.69,12.85,12.85,0,0,1-9.19-3.57,11.55,11.55,0,0,1-3.77-8.71v-94l-33.91,44.64A12.81,12.81,0,0,1,554,232.54Z"/><text class="cls-2" transform="translate(103.87 370.99)">compu<tspan class="cls-3" x="145.56" y="0">t</tspan><tspan x="163.59" y="0">er science men</tspan><tspan class="cls-3" x="483.9" y="0">t</tspan><tspan x="501.94" y="0">ors</tspan></text><polyline class="cls-4" points="96.11 115.64 13 198.75 94.09 279.84"/><polyline class="cls-4" points="687 115.64 770.12 198.75 689.03 279.84"/><line class="cls-5" x1="389.42" y1="47" x2="389.42" y2="91"/><path class="cls-1" d="M356.3,27a6.86,6.86,0,1,0,6.85,6.86A6.87,6.87,0,0,0,356.3,27Z"/><path class="cls-1" d="M369.74,10.32a58.28,58.28,0,0,0-55.8-5.74c-2.13,18.37,5.82,37.28,22.58,49a58.28,58.28,0,0,0,55.8,5.74C394.45,40.94,386.5,22,369.74,10.32ZM356.3,45.72a11.86,11.86,0,1,1,11.85-11.86A11.87,11.87,0,0,1,356.3,45.72Z"/><path class="cls-1" d="M464,4.58a58.28,58.28,0,0,0-55.8,5.74c-16.77,11.7-24.71,30.62-22.58,49a58.28,58.28,0,0,0,55.8-5.74C458.22,41.86,466.17,23,464,4.58ZM425.42,44a3,3,0,0,1-6,0V29h-1a3,3,0,0,1,0-6h4a3,3,0,0,1,3,3Z"/></g></g></svg>
