<svg xmlns="http://www.w3.org/2000/svg" xmlns:xlink="http://www.w3.org/1999/xlink" version="1.1" width="256" height="256" viewBox="0 0 256 256" xml:space="preserve">

<defs>
</defs>
<g style="stroke: none; stroke-width: 0; stroke-dasharray: none; stroke-linecap: butt; stroke-linejoin: miter; stroke-miterlimit: 10; fill: none; fill-rule: nonzero; opacity: 1;" transform="translate(1.4065934065934016 1.4065934065934016) scale(2.81 2.81)" >
	<path d="M 48.369 65.731 h -6.739 c -0.507 0 -0.918 0.411 -0.918 0.918 v 9.184 v 4.065 v 9.184 c 0 0.508 0.411 0.918 0.918 0.918 h 6.739 c 0.508 0 0.918 -0.411 0.918 -0.918 v -9.184 v -4.065 v -9.184 C 49.288 66.141 48.877 65.731 48.369 65.731 z" style="stroke: none; stroke-width: 1; stroke-dasharray: none; stroke-linecap: butt; stroke-linejoin: miter; stroke-miterlimit: 10; fill: rgb(184,102,42); fill-rule: nonzero; opacity: 1;" transform=" matrix(1 0 0 1 0 0) " stroke-linecap="round" />
	<path d="M 58.833 83.406 c -0.016 0 -0.031 0 -0.048 0 C 53.559 83.244 48.89 80.966 45 78.73 c -3.891 2.237 -8.558 4.514 -13.785 4.675 c -0.629 -0.002 -1.204 -0.346 -1.452 -0.928 c -0.252 -0.59 -0.119 -1.262 0.338 -1.712 c 0.994 -0.98 1.712 -1.923 2.181 -2.866 c -5.069 0.184 -9.879 -0.44 -14.303 -1.856 c -0.606 -0.194 -1.019 -0.73 -1.052 -1.366 c -0.034 -0.65 0.33 -1.239 0.928 -1.501 c 3.577 -1.569 7.069 -3.778 10.394 -6.572 c -2.21 0.276 -4.312 0.189 -6.264 -0.26 c -0.613 -0.141 -1.072 -0.636 -1.17 -1.26 c -0.098 -0.624 0.188 -1.236 0.727 -1.558 c 4.59 -2.734 7.759 -5.396 9.659 -8.116 c -1.6 0.297 -3.075 0.242 -4.486 -0.164 c -0.567 -0.163 -0.977 -0.628 -1.069 -1.213 c -0.094 -0.592 0.166 -1.192 0.662 -1.527 c 4.627 -3.129 8.304 -6.75 10.941 -10.773 c -1.721 0.284 -3.473 0.231 -5.218 -0.16 c -0.596 -0.133 -1.056 -0.61 -1.172 -1.215 c -0.114 -0.601 0.137 -1.209 0.64 -1.55 c 3.085 -2.087 5.707 -5.079 7.8 -8.899 c -1.328 0.148 -2.705 0.116 -4.101 -0.096 c -0.576 -0.087 -1.049 -0.482 -1.235 -1.029 c -0.186 -0.548 -0.05 -1.148 0.354 -1.566 c 3.212 -3.333 6.161 -8.189 9.28 -15.28 c 0.245 -0.558 0.796 -0.918 1.404 -0.918 c 0.608 0 1.159 0.361 1.404 0.918 c 3.117 7.09 6.066 11.946 9.281 15.28 c 0.404 0.42 0.539 1.02 0.353 1.567 c -0.186 0.547 -0.658 0.941 -1.234 1.028 c -1.395 0.21 -2.773 0.242 -4.1 0.096 c 2.093 3.82 4.715 6.812 7.799 8.899 c 0.503 0.339 0.755 0.948 0.641 1.549 c -0.115 0.605 -0.575 1.082 -1.173 1.216 c -1.743 0.391 -3.496 0.443 -5.218 0.159 c 2.637 4.022 6.315 7.643 10.942 10.773 c 0.496 0.335 0.755 0.935 0.662 1.526 c -0.093 0.586 -0.502 1.051 -1.07 1.214 c -1.411 0.407 -2.885 0.462 -4.487 0.164 c 1.9 2.719 5.069 5.381 9.659 8.116 c 0.54 0.323 0.825 0.934 0.727 1.558 c -0.098 0.625 -0.557 1.119 -1.169 1.26 c -1.952 0.449 -4.052 0.536 -6.264 0.26 c 3.325 2.794 6.818 5.003 10.394 6.572 c 0.597 0.262 0.961 0.851 0.927 1.501 c -0.032 0.636 -0.445 1.172 -1.05 1.366 c -4.426 1.414 -9.235 2.038 -14.306 1.856 c 0.469 0.943 1.187 1.886 2.182 2.867 c 0.456 0.449 0.589 1.121 0.337 1.711 C 59.994 83.045 59.447 83.406 58.833 83.406 z M 44.844 78.641 C 44.845 78.641 44.845 78.641 44.844 78.641 C 44.845 78.641 44.845 78.641 44.844 78.641 z" style="stroke: none; stroke-width: 1; stroke-dasharray: none; stroke-linecap: butt; stroke-linejoin: miter; stroke-miterlimit: 10; fill: rgb(86,148,65); fill-rule: nonzero; opacity: 1;" transform=" matrix(1 0 0 1 0 0) " stroke-linecap="round" />
	<path d="M 45.8 0.497 l 1.36 2.755 c 0.13 0.263 0.381 0.446 0.672 0.488 l 3.041 0.442 c 0.732 0.106 1.024 1.005 0.494 1.521 l -2.2 2.145 c -0.21 0.205 -0.306 0.5 -0.257 0.789 l 0.519 3.029 c 0.125 0.729 -0.64 1.284 -1.294 0.94 l -2.72 -1.43 c -0.26 -0.137 -0.57 -0.137 -0.83 0 l -2.72 1.43 c -0.654 0.344 -1.419 -0.212 -1.294 -0.94 l 0.519 -3.029 c 0.05 -0.289 -0.046 -0.585 -0.257 -0.789 l -2.2 -2.145 c -0.529 -0.516 -0.237 -1.415 0.494 -1.521 l 3.041 -0.442 c 0.29 -0.042 0.542 -0.225 0.672 -0.488 l 1.36 -2.755 C 44.527 -0.166 45.473 -0.166 45.8 0.497 z" style="stroke: none; stroke-width: 1; stroke-dasharray: none; stroke-linecap: butt; stroke-linejoin: miter; stroke-miterlimit: 10; fill: rgb(224,177,45); fill-rule: nonzero; opacity: 1;" transform=" matrix(1 0 0 1 0 0) " stroke-linecap="round" />
	<circle cx="40.895999999999994" cy="26.056" r="1.916" style="stroke: none; stroke-width: 1; stroke-dasharray: none; stroke-linecap: butt; stroke-linejoin: miter; stroke-miterlimit: 10; fill: rgb(224,177,45); fill-rule: nonzero; opacity: 1;" transform="  matrix(1 0 0 1 0 0) "/>
	<circle cx="50.596" cy="36.186" r="1.916" style="stroke: none; stroke-width: 1; stroke-dasharray: none; stroke-linecap: butt; stroke-linejoin: miter; stroke-miterlimit: 10; fill: rgb(8,190,145); fill-rule: nonzero; opacity: 1;" transform="  matrix(1 0 0 1 0 0) "/>
	<circle cx="39.296" cy="37.775999999999996" r="1.916" style="stroke: none; stroke-width: 1; stroke-dasharray: none; stroke-linecap: butt; stroke-linejoin: miter; stroke-miterlimit: 10; fill: rgb(190,60,8); fill-rule: nonzero; opacity: 1;" transform="  matrix(1 0 0 1 0 0) "/>
	<circle cx="56.465999999999994" cy="61.666" r="1.916" style="stroke: none; stroke-width: 1; stroke-dasharray: none; stroke-linecap: butt; stroke-linejoin: miter; stroke-miterlimit: 10; fill: rgb(8,190,145); fill-rule: nonzero; opacity: 1;" transform="  matrix(1 0 0 1 0 0) "/>
	<circle cx="30.806" cy="71.786" r="1.916" style="stroke: none; stroke-width: 1; stroke-dasharray: none; stroke-linecap: butt; stroke-linejoin: miter; stroke-miterlimit: 10; fill: rgb(8,190,145); fill-rule: nonzero; opacity: 1;" transform="  matrix(1 0 0 1 0 0) "/>
	<circle cx="35.256" cy="59.82599999999999" r="1.916" style="stroke: none; stroke-width: 1; stroke-dasharray: none; stroke-linecap: butt; stroke-linejoin: miter; stroke-miterlimit: 10; fill: rgb(224,177,45); fill-rule: nonzero; opacity: 1;" transform="  matrix(1 0 0 1 0 0) "/>
	<circle cx="42.965999999999994" cy="70.756" r="1.916" style="stroke: none; stroke-width: 1; stroke-dasharray: none; stroke-linecap: butt; stroke-linejoin: miter; stroke-miterlimit: 10; fill: rgb(190,60,8); fill-rule: nonzero; opacity: 1;" transform="  matrix(1 0 0 1 0 0) "/>
	<circle cx="41.175999999999995" cy="48.906" r="1.916" style="stroke: none; stroke-width: 1; stroke-dasharray: none; stroke-linecap: butt; stroke-linejoin: miter; stroke-miterlimit: 10; fill: rgb(224,177,45); fill-rule: nonzero; opacity: 1;" transform="  matrix(1 0 0 1 0 0) "/>
	<circle cx="46.766" cy="20.476" r="1.916" style="stroke: none; stroke-width: 1; stroke-dasharray: none; stroke-linecap: butt; stroke-linejoin: miter; stroke-miterlimit: 10; fill: rgb(190,60,8); fill-rule: nonzero; opacity: 1;" transform="  matrix(1 0 0 1 0 0) "/>
	<circle cx="61.675999999999995" cy="72.706" r="1.916" style="stroke: none; stroke-width: 1; stroke-dasharray: none; stroke-linecap: butt; stroke-linejoin: miter; stroke-miterlimit: 10; fill: rgb(224,177,45); fill-rule: nonzero; opacity: 1;" transform="  matrix(1 0 0 1 0 0) "/>
	<circle cx="50.876" cy="52.425999999999995" r="1.916" style="stroke: none; stroke-width: 1; stroke-dasharray: none; stroke-linecap: butt; stroke-linejoin: miter; stroke-miterlimit: 10; fill: rgb(190,60,8); fill-rule: nonzero; opacity: 1;" transform="  matrix(1 0 0 1 0 0) "/>
</g>
</svg>