<?xml version="1.0" encoding="utf-8"?>
<!-- Uploaded to: SVG Repo, www.svgrepo.com, Generator: SVG Repo Mixer Tools -->
<svg width="800px" height="800px" viewBox="0 -74.5 1173 1173" class="icon"  version="1.1" xmlns="http://www.w3.org/2000/svg"><path d="M724.099 297.075c-44.381-67.192-84.69-112.825-106.859-125.736-4.987-2.903-15.845-9.228-30.376-9.069s-25.126 6.66-30.061 9.669c-21.875 13.342-60.827 58.923-103.302 125.661z" fill="#6BE166" /><path d="M656.488 272.001c11.668 0.883 26.978-15.32 27.241-30.45 0.736-42.993-119.948-79.702-123.525-72.832-2.051 3.883 36.616 15.299 64.982 58.554 15.835 24.147 18.981 43.792 31.302 44.727z" fill="#60C95B" /><path d="M453.492 318.633c-11.612-0.013-21.021-9.429-21.021-21.044 0-4.195 1.227-8.102 3.341-11.383 42.384-66.636 83.556-116.098 110.038-132.25 6.155-3.746 20.538-12.51 40.782-12.742s34.953 8.29 41.192 11.933c26.903 15.678 69.443 65.14 113.825 132.331 2.42 3.382 3.869 7.6 3.869 12.159 0 11.622-9.422 21.044-21.044 21.044-7.558 0-14.182-3.984-17.895-9.965-51.703-78.255-87.141-111.737-99.935-119.197-4.051-2.356-10.837-6.312-19.55-6.218s-15.352 4.209-19.329 6.587c-16.897 10.301-53.293 51.094-96.495 118.99-3.794 5.901-10.327 9.753-17.758 9.753-0.007 0-0.017 0-0.024 0z" fill="#000000" /><path d="M745.533 827.401c71.452-6.082 83.122 20.676 122.348 10.921 90.141-22.402 142.043-191.843 130.807-327.521-7.818-94.211-51.557-196.231-138.371-218.011-39.93-10.017-54.639 14.456-123.683 3.157-66.645-10.943-76.178-37.573-130.313-35.879-32.47 1.052-38.478 10.89-105.755 28.325-60.699 16.417-130.734 26.684-202.885 28.416 95.214-6.939 85.197-3.405 75.993 1.462-79.609 28.372-110.522 121.499-117.097 151.528-35.615 162.719 26.726 359.128 110.552 374.49 30.998 5.682 42.087-17.593 98.168-15.709 64.057 2.104 71.8 33.217 129.618 36.826 62.374 3.799 71.19-31.251 150.619-38.004z" fill="#EF863F" /><path d="M729.151 821.73c25.863 11.215 89.024 34.132 149.24 8.323 98.684-42.287 110.236-181.49 114.256-229.69 14.163-169.895-88.878-258.741-126.198-301.889-79.187-28.704-109.742-17.287-123.462-4.094-46.054 44.275 42.181 119.632 42.718 289.674 0.326 103.722-32.103 187.223-56.554 237.676z" fill="#CF7436" /><path d="M637.706 843.3c25.863-6.786 67.444-22.096 98.726-59.468 8.049-9.617 34.112-42.561 44.581-162.34 7.807-89.234 11.711-133.858-2.567-183.173-27.556-95.232-96.631-153.617-134.393-180.364 44.188 51.629 75.635 115.432 88.706 185.697 66.215 135.417-71.22 361.699-95.052 399.65z" fill="#CF7436" /><path d="M587.254 882.747c-34.090 0-53.661-8.418-72.599-16.54-16.75-7.197-32.617-13.994-61.804-16.668-35.647-3.262-55.008 2.873-73.736 8.817-17.077 5.419-34.721 11.017-58.637 6.187-23.411-4.734-45.643-17.887-66.076-39.088-18.202-18.877-34.438-43.582-48.326-73.452-1.239-2.603-1.963-5.654-1.963-8.875 0-11.622 9.422-21.044 21.045-21.044 8.402 0 15.653 4.924 19.027 12.042 23.507 50.57 54.347 83.018 84.65 89.152 13.215 2.672 22.906-0.401 37.563-5.050 20.58-6.523 46.191-14.647 90.298-10.607 35.879 3.283 56.439 12.121 74.579 19.907 17.14 7.364 30.66 13.173 56.323 13.12 25.474-0.053 38.877-5.85 55.838-13.184 18.003-7.785 38.415-16.614 74.157-19.991 44.192-4.209 69.864 3.757 90.487 10.185 14.73 4.578 24.463 7.608 37.71 4.902 23.147-4.714 46.159-24.011 66.666-55.819 23.947-37.152 42.151-88.245 51.251-143.874 9.701-59.301 8.481-118.433-3.515-171.021-3.924-17.212-28.083-104.859-117.97-139.36-7.423-2.83-16.009-4.673-24.961-5.122l13.283 1.744c-31.502-7.364-58.469 0.81-69.991 4.282l-2.504 0.747c-35.952 10.47-61.952-0.558-87.098-11.227-22.864-9.691-46.506-19.708-84.785-19.55-37.637 0.167-60.763 10.048-83.122 19.601-24.821 10.597-50.504 21.56-86.131 10.858l-2.736-0.841c-11.312-3.525-37.783-11.774-69.085-5.534l-0.653 0.116c-8.893 1.651-16.825 4.463-24.12 8.319-78.235 28.044-102.382 119.393-106.306 137.365-11.647 53.261-12.332 115.446-1.947 175.124 0.2 1.087 0.313 2.337 0.313 3.615 0 11.623-9.423 21.046-21.046 21.046-10.345 0-18.949-7.466-20.714-17.303-11.477-65.994-10.688-132.155 2.274-191.486 4.756-21.738 34.038-132.237 144.221-172.851 10.994-4.056 23.699-6.64 36.933-7.165 24.862-6.397 59.627 4.431 72.727 8.523l2.314 0.715c21.044 6.312 34.721 0.453 57.491-9.26 23.759-10.144 53.324-22.769 99.472-22.98 46.937-0.22 77.145 12.625 101.408 22.884 22.496 9.533 37.352 15.835 58.923 9.564l2.104-0.631c13.447-4.051 49.115-14.803 91.444-5.029 13.65 3.017 25.726 7.836 36.729 14.283 25.454 8.023 61.912 37.537 89.090 78.561 23.348 35.279 32.618 68.801 35.564 81.586 13.194 57.87 14.583 122.558 4.019 187.172-10.006 61.205-30.397 117.98-57.417 159.931-26.788 41.549-59.164 67.223-93.643 74.252-23.831 4.861-41.508-0.631-58.616-5.955-18.813-5.85-38.278-11.9-74-8.47-29.145 2.788-44.844 9.585-61.469 16.772-18.834 8.143-38.32 16.572-72.463 16.644z" fill="#000000" /><path d="M205.106 711.231c-9.436-0.003-17.421-6.215-20.089-14.772l-0.293-1.001c-0.618-1.892-0.975-4.070-0.975-6.33 0-11.622 9.422-21.044 21.044-21.044 9.543 0 17.604 6.353 20.181 15.061l0.27 0.907c0.58 1.835 0.914 3.946 0.914 6.135 0 11.622-9.422 21.044-21.044 21.044-0.004 0-0.007 0-0.008 0zM719.598 849.423c-11.618-0.007-21.035-9.425-21.035-21.044 0-3.33 0.773-6.479 2.15-9.277 39.936-81.133 63.434-176.715 63.697-277.76 0.797-109.222-28.852-167.754-52.632-214.786-3.63-7.165-7.060-13.942-10.322-20.749-1.319-2.673-2.091-5.819-2.091-9.146 0-11.622 9.422-21.044 21.044-21.044 8.334 0 15.537 4.844 18.945 11.872 3.117 6.521 6.452 13.099 9.967 20.053 24.504 48.4 58.080 114.687 57.186 238.097-0.978 107.827-26.632 209.437-71.577 299.757 0.198-0.773-6.978 4.027-15.274 4.027-0.021 0-0.042 0-0.064 0zM454.796 849.624c-0.002 0-0.005 0-0.007 0-8.359 0-15.578-4.872-18.974-11.933-41.713-86.488-66.069-187.915-66.1-295.030 0.106-121.567 32.154-184.583 57.975-235.202 3.62-7.102 7.039-13.805 10.185-20.349 3.622-6.656 10.566-11.098 18.546-11.098 11.622 0 21.044 9.422 21.044 21.044 0 3.003-0.629 5.859-1.763 8.444-3.304 6.842-6.829 13.744-10.553 21.067-23.779 46.622-53.24 104.606-53.346 216.58 0.096 100.582 23.024 195.783 63.878 280.737-0.598-1.654 0.147 1.441 0.147 4.709 0 11.618-9.414 21.037-21.032 21.044z" fill="#000000" /></svg>
