<?xml version="1.0" encoding="iso-8859-1"?>
<!-- Generator: Adobe Illustrator 19.0.0, SVG Export Plug-In . SVG Version: 6.00 Build 0)  -->
<svg version="1.1" id="Layer_1" xmlns="http://www.w3.org/2000/svg" xmlns:xlink="http://www.w3.org/1999/xlink" x="0px" y="0px"
	 viewBox="0 0 512 512" style="enable-background:new 0 0 512 512;" xml:space="preserve">
<g>
	<g>
		<path d="M429.824,478.609h-37.477V375.653c0-51.533-28.74-96.475-71.03-119.653c42.29-23.178,71.03-68.12,71.03-119.653V33.391
			h37.477c9.22,0,16.696-7.475,16.696-16.696S439.044,0,429.824,0C413.52,0,98.409,0,82.176,0C72.956,0,65.48,7.475,65.48,16.696
			s7.475,16.696,16.696,16.696h37.477v102.955c0,51.533,28.74,96.475,71.03,119.653c-42.29,23.178-71.03,68.12-71.03,119.653
			v102.955H82.176c-9.22,0-16.696,7.475-16.696,16.696S72.956,512,82.176,512c16.304,0,331.415,0,347.648,0
			c9.22,0,16.696-7.475,16.696-16.696S439.044,478.609,429.824,478.609z M153.045,136.347V33.391h205.911v102.955
			c0,56.77-46.186,102.955-102.955,102.955S153.045,193.116,153.045,136.347z M256,272.698c53.819,0,102.955,42.069,102.955,106.323
			H153.045C153.045,314.354,202.582,272.698,256,272.698z M358.955,478.609H153.045v-66.196h205.911V478.609z"/>
	</g>
</g>
<g>
</g>
<g>
</g>
<g>
</g>
<g>
</g>
<g>
</g>
<g>
</g>
<g>
</g>
<g>
</g>
<g>
</g>
<g>
</g>
<g>
</g>
<g>
</g>
<g>
</g>
<g>
</g>
<g>
</g>
</svg>
